<mxfile host="65bd71144e">
    <diagram id="MdFG07NWi0iFyWOhgQug" name="Seite-1">
        <mxGraphModel dx="1734" dy="916" grid="1" gridSize="10" guides="1" tooltips="1" connect="1" arrows="1" fold="1" page="1" pageScale="1" pageWidth="827" pageHeight="1169" background="#ffffff" math="0" shadow="0">
            <root>
                <mxCell id="0"/>
                <mxCell id="1" parent="0"/>
                <mxCell id="14" value="" style="shape=partialRectangle;whiteSpace=wrap;html=1;bottom=1;right=1;left=1;top=0;fillColor=none;routingCenterX=-0.5;fontSize=16;fontColor=#0A0909;strokeWidth=5;strokeColor=#0A0909;fontStyle=1;fontFamily=Helvetica;sketch=1;curveFitting=1;jiggle=2;" parent="1" vertex="1">
                    <mxGeometry x="80" y="524" width="640" height="320" as="geometry"/>
                </mxCell>
                <mxCell id="28" value="&lt;font style=&quot;font-size: 8px&quot;&gt;Interaction&lt;/font&gt;" style="text;html=1;strokeColor=none;fillColor=none;align=center;verticalAlign=middle;whiteSpace=wrap;rounded=0;fontColor=#0A0909;fontFamily=Helvetica;fontStyle=1" parent="1" vertex="1">
                    <mxGeometry x="247" y="747" width="60" height="30" as="geometry"/>
                </mxCell>
                <mxCell id="29" value="&lt;font style=&quot;font-size: 8px&quot;&gt;Interaction&lt;/font&gt;" style="text;html=1;strokeColor=none;fillColor=none;align=center;verticalAlign=middle;whiteSpace=wrap;rounded=0;fontColor=#0A0909;fontFamily=Helvetica;fontStyle=1" parent="1" vertex="1">
                    <mxGeometry x="424" y="747" width="60" height="30" as="geometry"/>
                </mxCell>
                <mxCell id="12" value="Mindset A" style="ellipse;shape=cloud;whiteSpace=wrap;html=1;fontSize=16;fontColor=#0A0909;fillColor=#9AE2FC;gradientColor=none;fontStyle=1;fillOpacity=60;fontFamily=Helvetica;" parent="1" vertex="1">
                    <mxGeometry x="210" y="550" width="160" height="80" as="geometry"/>
                </mxCell>
                <mxCell id="13" value="&lt;br style=&quot;font-size: 16px;&quot;&gt;&lt;br style=&quot;font-size: 16px;&quot;&gt;&lt;br style=&quot;font-size: 16px;&quot;&gt;Individual A" style="shape=actor;whiteSpace=wrap;html=1;fontSize=16;fontColor=#0A0909;fillColor=#9AE2FC;gradientColor=none;fontStyle=1;fontFamily=Helvetica;" parent="1" vertex="1">
                    <mxGeometry x="130" y="630" width="120" height="160" as="geometry"/>
                </mxCell>
                <mxCell id="15" value="" style="ellipse;shape=cloud;whiteSpace=wrap;html=1;fontSize=16;fontColor=#0A0909;fillColor=#9AE2FC;gradientColor=none;fontStyle=1;fontFamily=Helvetica;" parent="1" vertex="1">
                    <mxGeometry x="220" y="620" width="40" height="40" as="geometry"/>
                </mxCell>
                <mxCell id="16" value="Mindset B" style="ellipse;shape=cloud;whiteSpace=wrap;html=1;fontSize=16;fontColor=#0A0909;fillColor=#1ba1e2;strokeColor=#006EAF;fontStyle=1;fillOpacity=60;fontFamily=Helvetica;" parent="1" vertex="1">
                    <mxGeometry x="320" y="550" width="220" height="80" as="geometry"/>
                </mxCell>
                <mxCell id="17" value="&lt;br style=&quot;font-size: 16px;&quot;&gt;&lt;br style=&quot;font-size: 16px;&quot;&gt;&lt;br style=&quot;font-size: 16px;&quot;&gt;Individual B" style="shape=actor;whiteSpace=wrap;html=1;fontSize=16;fontColor=#0A0909;fillColor=#1ba1e2;strokeColor=#006EAF;fontStyle=1;fontFamily=Helvetica;" parent="1" vertex="1">
                    <mxGeometry x="304" y="630" width="120" height="160" as="geometry"/>
                </mxCell>
                <mxCell id="18" value="" style="ellipse;shape=cloud;whiteSpace=wrap;html=1;fontSize=16;fontColor=#0A0909;fillColor=#1ba1e2;strokeColor=#006EAF;fontStyle=1;fontFamily=Helvetica;" parent="1" vertex="1">
                    <mxGeometry x="394" y="620" width="40" height="40" as="geometry"/>
                </mxCell>
                <mxCell id="19" value="Mindset C" style="ellipse;shape=cloud;whiteSpace=wrap;html=1;fontSize=16;fontColor=#0A0909;fillColor=#0E77EF;strokeColor=#001DBC;fontStyle=1;fillOpacity=60;fontFamily=Helvetica;" parent="1" vertex="1">
                    <mxGeometry x="480" y="550" width="200" height="80" as="geometry"/>
                </mxCell>
                <mxCell id="20" value="&lt;br style=&quot;font-size: 16px;&quot;&gt;&lt;br style=&quot;font-size: 16px;&quot;&gt;&lt;br style=&quot;font-size: 16px;&quot;&gt;Individual C" style="shape=actor;whiteSpace=wrap;html=1;fontSize=16;fontColor=#0A0909;fillColor=#0E77EF;strokeColor=#001DBC;fontStyle=1;fontFamily=Helvetica;" parent="1" vertex="1">
                    <mxGeometry x="480" y="630" width="120" height="160" as="geometry"/>
                </mxCell>
                <mxCell id="21" value="" style="ellipse;shape=cloud;whiteSpace=wrap;html=1;fontSize=16;fontColor=#0A0909;fillColor=#0E77EF;strokeColor=#001DBC;fontStyle=1;fontFamily=Helvetica;" parent="1" vertex="1">
                    <mxGeometry x="570" y="620" width="40" height="40" as="geometry"/>
                </mxCell>
                <mxCell id="23" value="Group of Individuals&lt;br&gt;&lt;span style=&quot;font-weight: normal&quot;&gt;Following a common&lt;/span&gt; Ideology" style="text;html=1;strokeColor=none;fillColor=none;align=left;verticalAlign=middle;whiteSpace=wrap;rounded=0;fontSize=24;fontColor=#0A0909;fontStyle=1;fontFamily=Helvetica;" parent="1" vertex="1">
                    <mxGeometry x="100" y="870" width="370" height="30" as="geometry"/>
                </mxCell>
                <mxCell id="24" value="" style="shape=curlyBracket;whiteSpace=wrap;html=1;rounded=1;flipH=1;fontSize=24;fontColor=#0A0909;strokeColor=#0A0909;strokeWidth=5;fillColor=#9AE2FC;gradientColor=none;fontFamily=Helvetica;" parent="1" vertex="1">
                    <mxGeometry x="760" y="510" width="20" height="410" as="geometry"/>
                </mxCell>
                <mxCell id="25" value="Theory&lt;br&gt;&lt;span style=&quot;font-weight: normal&quot;&gt;describing and explaining how&amp;nbsp;&lt;br&gt;the group would or should interact&lt;/span&gt;" style="text;html=1;strokeColor=none;fillColor=none;align=left;verticalAlign=middle;whiteSpace=wrap;rounded=0;fontSize=24;fontColor=#0A0909;fontStyle=1;fontFamily=Helvetica;" parent="1" vertex="1">
                    <mxGeometry x="810" y="700" width="370" height="30" as="geometry"/>
                </mxCell>
                <mxCell id="26" value="" style="endArrow=classic;startArrow=classic;html=1;entryX=0;entryY=0.75;entryDx=0;entryDy=0;exitX=1;exitY=0.75;exitDx=0;exitDy=0;fontColor=#0A0909;fontFamily=Helvetica;strokeColor=#000000;strokeWidth=3;sketch=1;curveFitting=1;jiggle=2;" parent="1" source="13" target="17" edge="1">
                    <mxGeometry width="50" height="50" relative="1" as="geometry">
                        <mxPoint x="250" y="740" as="sourcePoint"/>
                        <mxPoint x="300" y="690" as="targetPoint"/>
                    </mxGeometry>
                </mxCell>
                <mxCell id="27" value="" style="endArrow=classic;startArrow=classic;html=1;exitX=1;exitY=0.75;exitDx=0;exitDy=0;entryX=0;entryY=0.75;entryDx=0;entryDy=0;fontColor=#0A0909;fontFamily=Helvetica;strokeColor=#000000;strokeWidth=3;sketch=1;curveFitting=1;jiggle=2;" parent="1" source="17" target="20" edge="1">
                    <mxGeometry width="50" height="50" relative="1" as="geometry">
                        <mxPoint x="450" y="740" as="sourcePoint"/>
                        <mxPoint x="500" y="690" as="targetPoint"/>
                    </mxGeometry>
                </mxCell>
            </root>
        </mxGraphModel>
    </diagram>
</mxfile>